# xmcd
#
# Track frame offsets:
#	150
#	19040
#	34647
#	50737
#	70262
#	90670
#	105612
#	124540
#	137195
#	153997
#	167127
#	178220
#	191365
#	212842
#	235572
#	254645
#
# Disc length: 3571
#
# Revision: 2
# Processed by: cddbd v1.5.1PL0 Copyright (c) Steve Scherf et al.
# Submitted via: EasyCDDAExtractor 5.1.0
# Normalized: r1:DSETVAR1
#
DISCID=dc0df110
DTITLE=Various Artist - Ducks 4 (16 More Shaggin'Dance Favorites)
DYEAR=1900
DGENRE=
TTITLE0=Juke Jumpers - Give Me Something Fried
TTITLE1=New Tokens - Little Darlin
TTITLE2=Mighty Clouds Of Joy - Look On The Bright Side
TTITLE3=David Antebi - You're The First, My Last, My Everything
TTITLE4=Lobo - Caribbean
TTITLE5=Tony Jackson - Sayanora
TTITLE6=Juke Jumpers - Necks And Feet
TTITLE7=Big Joe Duskin - Don't Mess With The Boogie Man
TTITLE8=Joy Fleming - Are You Ready For Love
TTITLE9=Official Blues Band - Goin Home
TTITLE10=Mills Brothers - Smack Dab In The Middle
TTITLE11=Ronnie Jones - Soul Sister
TTITLE12=Joe Turner - Can't Read, Can't Write Blues
TTITLE13=Taj Mahal - Deed I Do
TTITLE14=David Antebi - My Blue Heaven
TTITLE15=Deluxury - Operator
EXTD=
EXTT0=
EXTT1=
EXTT2=
EXTT3=
EXTT4=
EXTT5=
EXTT6=
EXTT7=
EXTT8=
EXTT9=
EXTT10=
EXTT11=
EXTT12=
EXTT13=
EXTT14=
EXTT15=
PLAYORDER=
